<svg xmlns="http://www.w3.org/2000/svg" width="18" height="18" viewBox="0 0 18 18">
  <path fill="#f5f5f7" d="M13.04,5.22a4.21,4.21,0,0,0-1.93-1.65A4.12,4.12,0,0,0,9.5,3.2a3.93,3.93,0,0,0-1.6.33,4.2,4.2,0,0,0-1.93,1.65,4.39,4.39,0,0,0-.77,2.46A4.27,4.27,0,0,0,6,10.09a4.23,4.23,0,0,0,1.93,1.65,4,4,0,0,0,1.6.33,4.06,4.06,0,0,0,1.61-.33,4.23,4.23,0,0,0,1.93-1.65,4.27,4.27,0,0,0,.77-2.45A4.39,4.39,0,0,0,13.04,5.22ZM9.5,1.5a4.5,4.5,0,0,1,3.54,1.75,4.36,4.36,0,0,0-1.78-1.26A4.3,4.3,0,0,0,9.5,1.5ZM9.5,16.5a4.5,4.5,0,0,1-3.54-1.75,4.36,4.36,0,0,0,1.78,1.26A4.3,4.3,0,0,0,9.5,16.5Z"/>
</svg>