<?xml version="1.0" encoding="iso-8859-1"?>
<!-- Uploaded to: SVG Repo, www.svgrepo.com, Generator: SVG Repo Mixer Tools -->
<svg fill="#000000" height="800px" width="800px" version="1.1" id="Layer_1" xmlns="http://www.w3.org/2000/svg" xmlns:xlink="http://www.w3.org/1999/xlink" 
	 viewBox="0 0 512 512" xml:space="preserve">
<g>
	<g>
		<g>
			<path d="M358.401,0h-204.8C92.434,0,42.667,49.766,42.667,110.933v8.533h112.145c3.814-14.677,17.058-25.6,32.922-25.6h136.533
				c15.863,0,29.107,10.923,32.922,25.6h112.145v-8.533C469.334,49.766,419.568,0,358.401,0z"/>
			<path d="M324.267,145.067c9.412,0,17.067-7.654,17.067-17.067c0-9.412-7.654-17.067-17.067-17.067H187.733
				c-9.412,0-17.067,7.654-17.067,17.067c0,9.412,7.654,17.067,17.067,17.067H324.267z"/>
			<path d="M324.266,162.133H187.732c-15.863,0-29.107-10.923-32.922-25.6H42.666v264.533C42.666,462.234,92.432,512,153.599,512
				h204.8c61.167,0,110.933-49.766,110.933-110.933V136.533H357.187C353.373,151.211,340.129,162.133,324.266,162.133z"/>
		</g>
	</g>
</g>
</svg>