<?xml version="1.0" ?><!-- Uploaded to: SVG Repo, www.svgrepo.com, Generator: SVG Repo Mixer Tools -->
<svg fill="#000000" width="800px" height="800px" viewBox="0 0 35 35" data-name="Layer 2" id="e6af3aa5-e4c9-4caa-8ee4-7a9805a3f938" xmlns="http://www.w3.org/2000/svg"><path d="M24.826,11.526a1.25,1.25,0,0,1-1.25-1.25V4.351c0-.916-.515-1.6-.975-1.6H12.407c-.464,0-.983.685-.983,1.6v5.925a1.25,1.25,0,0,1-2.5,0V4.351c0-2.261,1.562-4.1,3.483-4.1H22.6c1.916,0,3.475,1.84,3.475,4.1v5.925A1.25,1.25,0,0,1,24.826,11.526Z"/><path d="M24.9,34.75H10.1a3.226,3.226,0,0,1-3.234-3.211V13.458A3.227,3.227,0,0,1,10.1,10.247H24.9a3.226,3.226,0,0,1,3.233,3.211V31.539A3.226,3.226,0,0,1,24.9,34.75Zm-14.807-22a.724.724,0,0,0-.734.711V31.539a.723.723,0,0,0,.734.711H24.9a.723.723,0,0,0,.733-.711V13.458a.724.724,0,0,0-.733-.711Z"/><path d="M15.173,7.928a1.249,1.249,0,0,1-1.25-1.25v-.64a1.25,1.25,0,1,1,2.5,0v.64A1.25,1.25,0,0,1,15.173,7.928Z"/><path d="M19.827,7.928a1.25,1.25,0,0,1-1.25-1.25v-.64a1.25,1.25,0,0,1,2.5,0v.64A1.249,1.249,0,0,1,19.827,7.928Z"/><path d="M21.078,27.544H13.922a1.25,1.25,0,0,1,0-2.5h7.156a1.25,1.25,0,0,1,0,2.5Z"/></svg>